<?xml version="1.0" encoding="utf-8" standalone="no"?>
<!DOCTYPE svg PUBLIC "-//W3C//DTD SVG 1.1//EN"
  "http://www.w3.org/Graphics/SVG/1.1/DTD/svg11.dtd">
<svg xmlns:xlink="http://www.w3.org/1999/xlink" width="720pt" height="576pt" viewBox="0 0 720 576" xmlns="http://www.w3.org/2000/svg" version="1.1">
 <metadata>
  <rdf:RDF xmlns:dc="http://purl.org/dc/elements/1.1/" xmlns:cc="http://creativecommons.org/ns#" xmlns:rdf="http://www.w3.org/1999/02/22-rdf-syntax-ns#">
   <cc:Work>
    <dc:type rdf:resource="http://purl.org/dc/dcmitype/StillImage"/>
    <dc:date>2024-05-19T13:27:18.615309</dc:date>
    <dc:format>image/svg+xml</dc:format>
    <dc:creator>
     <cc:Agent>
      <dc:title>Matplotlib v3.8.2, https://matplotlib.org/</dc:title>
     </cc:Agent>
    </dc:creator>
   </cc:Work>
  </rdf:RDF>
 </metadata>
 <defs>
  <style type="text/css">*{stroke-linejoin: round; stroke-linecap: butt}</style>
 </defs>
 <g id="figure_1">
  <g id="patch_1">
   <path d="M 0 576 
L 720 576 
L 720 0 
L 0 0 
z
" style="fill: #ffffff"/>
  </g>
  <g id="axes_1">
   <g id="patch_2">
    <path d="M 90 512.64 
L 648 512.64 
L 648 69.12 
L 90 69.12 
z
" style="fill: #e5e5e5"/>
   </g>
   <g id="matplotlib.axis_1">
    <g id="xtick_1">
     <g id="line2d_1">
      <path d="M 140.727273 512.64 
L 140.727273 69.12 
" clip-path="url(#pdd411b56c8)" style="fill: none; stroke: #ffffff; stroke-width: 0.8; stroke-linecap: square"/>
     </g>
     <g id="line2d_2">
      <defs>
       <path id="m0985380d8a" d="M 0 0 
L 0 3.5 
" style="stroke: #555555; stroke-width: 0.8"/>
      </defs>
      <g>
       <use xlink:href="#m0985380d8a" x="140.727273" y="512.64" style="fill: #555555; stroke: #555555; stroke-width: 0.8"/>
      </g>
     </g>
     <g id="text_1">
      <!-- 0.0 -->
      <g style="fill: #555555" transform="translate(133.227273 526.515) scale(0.1 -0.1)">
       <defs>
        <path id="SimHei-30" d="M 225 2537 
Q 250 3200 412 3587 
Q 575 3975 875 4225 
Q 1175 4475 1612 4475 
Q 2050 4475 2375 4112 
Q 2700 3750 2800 3200 
Q 2900 2650 2862 1937 
Q 2825 1225 2612 775 
Q 2400 325 1975 150 
Q 1550 -25 1125 187 
Q 700 400 525 750 
Q 350 1100 275 1487 
Q 200 1875 225 2537 
z
M 750 2687 
Q 675 2000 800 1462 
Q 925 925 1212 700 
Q 1500 475 1800 612 
Q 2100 750 2237 1162 
Q 2375 1575 2375 2062 
Q 2375 2550 2337 2950 
Q 2300 3350 2112 3675 
Q 1925 4000 1612 4012 
Q 1300 4025 1062 3700 
Q 825 3375 750 2687 
z
" transform="scale(0.015625)"/>
        <path id="SimHei-2e" d="M 1075 125 
L 500 125 
L 500 675 
L 1075 675 
L 1075 125 
z
" transform="scale(0.015625)"/>
       </defs>
       <use xlink:href="#SimHei-30"/>
       <use xlink:href="#SimHei-2e" x="50"/>
       <use xlink:href="#SimHei-30" x="100"/>
      </g>
     </g>
    </g>
    <g id="xtick_2">
     <g id="line2d_3">
      <path d="M 242.181818 512.64 
L 242.181818 69.12 
" clip-path="url(#pdd411b56c8)" style="fill: none; stroke: #ffffff; stroke-width: 0.8; stroke-linecap: square"/>
     </g>
     <g id="line2d_4">
      <g>
       <use xlink:href="#m0985380d8a" x="242.181818" y="512.64" style="fill: #555555; stroke: #555555; stroke-width: 0.8"/>
      </g>
     </g>
     <g id="text_2">
      <!-- 0.2 -->
      <g style="fill: #555555" transform="translate(234.681818 526.515) scale(0.1 -0.1)">
       <defs>
        <path id="SimHei-32" d="M 300 250 
Q 325 625 650 925 
Q 975 1225 1475 1862 
Q 1975 2500 2125 2850 
Q 2275 3200 2237 3450 
Q 2200 3700 2000 3862 
Q 1800 4025 1537 4000 
Q 1275 3975 1037 3800 
Q 800 3625 675 3275 
L 200 3350 
Q 400 3925 712 4187 
Q 1025 4450 1450 4475 
Q 1700 4500 1900 4462 
Q 2100 4425 2312 4287 
Q 2525 4150 2662 3875 
Q 2800 3600 2762 3212 
Q 2725 2825 2375 2287 
Q 2025 1750 1025 600 
L 2825 600 
L 2825 150 
L 300 150 
L 300 250 
z
" transform="scale(0.015625)"/>
       </defs>
       <use xlink:href="#SimHei-30"/>
       <use xlink:href="#SimHei-2e" x="50"/>
       <use xlink:href="#SimHei-32" x="100"/>
      </g>
     </g>
    </g>
    <g id="xtick_3">
     <g id="line2d_5">
      <path d="M 343.636364 512.64 
L 343.636364 69.12 
" clip-path="url(#pdd411b56c8)" style="fill: none; stroke: #ffffff; stroke-width: 0.8; stroke-linecap: square"/>
     </g>
     <g id="line2d_6">
      <g>
       <use xlink:href="#m0985380d8a" x="343.636364" y="512.64" style="fill: #555555; stroke: #555555; stroke-width: 0.8"/>
      </g>
     </g>
     <g id="text_3">
      <!-- 0.4 -->
      <g style="fill: #555555" transform="translate(336.136364 526.515) scale(0.1 -0.1)">
       <defs>
        <path id="SimHei-34" d="M 2000 1100 
L 75 1100 
L 75 1525 
L 2100 4450 
L 2475 4450 
L 2475 1525 
L 3075 1525 
L 3075 1100 
L 2475 1100 
L 2475 150 
L 2000 150 
L 2000 1100 
z
M 2000 1525 
L 2000 3500 
L 600 1525 
L 2000 1525 
z
" transform="scale(0.015625)"/>
       </defs>
       <use xlink:href="#SimHei-30"/>
       <use xlink:href="#SimHei-2e" x="50"/>
       <use xlink:href="#SimHei-34" x="100"/>
      </g>
     </g>
    </g>
    <g id="xtick_4">
     <g id="line2d_7">
      <path d="M 445.090909 512.64 
L 445.090909 69.12 
" clip-path="url(#pdd411b56c8)" style="fill: none; stroke: #ffffff; stroke-width: 0.8; stroke-linecap: square"/>
     </g>
     <g id="line2d_8">
      <g>
       <use xlink:href="#m0985380d8a" x="445.090909" y="512.64" style="fill: #555555; stroke: #555555; stroke-width: 0.8"/>
      </g>
     </g>
     <g id="text_4">
      <!-- 0.6 -->
      <g style="fill: #555555" transform="translate(437.590909 526.515) scale(0.1 -0.1)">
       <defs>
        <path id="SimHei-36" d="M 250 1612 
Q 275 1975 387 2225 
Q 500 2475 725 2850 
L 1750 4450 
L 2325 4450 
L 1275 2800 
Q 1950 2975 2350 2750 
Q 2750 2525 2887 2237 
Q 3025 1950 3037 1612 
Q 3050 1275 2937 950 
Q 2825 625 2537 362 
Q 2250 100 1737 75 
Q 1225 50 862 262 
Q 500 475 362 862 
Q 225 1250 250 1612 
z
M 1025 787 
Q 1250 550 1625 525 
Q 2000 500 2250 775 
Q 2500 1050 2500 1575 
Q 2500 2100 2187 2300 
Q 1875 2500 1487 2450 
Q 1100 2400 925 2075 
Q 750 1750 775 1387 
Q 800 1025 1025 787 
z
" transform="scale(0.015625)"/>
       </defs>
       <use xlink:href="#SimHei-30"/>
       <use xlink:href="#SimHei-2e" x="50"/>
       <use xlink:href="#SimHei-36" x="100"/>
      </g>
     </g>
    </g>
    <g id="xtick_5">
     <g id="line2d_9">
      <path d="M 546.545455 512.64 
L 546.545455 69.12 
" clip-path="url(#pdd411b56c8)" style="fill: none; stroke: #ffffff; stroke-width: 0.8; stroke-linecap: square"/>
     </g>
     <g id="line2d_10">
      <g>
       <use xlink:href="#m0985380d8a" x="546.545455" y="512.64" style="fill: #555555; stroke: #555555; stroke-width: 0.8"/>
      </g>
     </g>
     <g id="text_5">
      <!-- 0.8 -->
      <g style="fill: #555555" transform="translate(539.045455 526.515) scale(0.1 -0.1)">
       <defs>
        <path id="SimHei-38" d="M 175 1375 
Q 175 1675 325 1962 
Q 475 2250 825 2425 
Q 525 2600 425 2812 
Q 325 3025 312 3300 
Q 300 3575 387 3775 
Q 475 3975 650 4150 
Q 825 4325 1037 4387 
Q 1250 4450 1500 4450 
Q 1750 4450 1950 4400 
Q 2150 4350 2375 4187 
Q 2600 4025 2700 3725 
Q 2800 3425 2687 3025 
Q 2575 2625 2100 2400 
Q 2525 2275 2700 2012 
Q 2875 1750 2875 1375 
Q 2875 1000 2762 775 
Q 2650 550 2512 400 
Q 2375 250 2137 162 
Q 1900 75 1537 75 
Q 1175 75 912 162 
Q 650 250 475 425 
Q 300 600 237 837 
Q 175 1075 175 1375 
z
M 687 1400 
Q 675 1100 787 875 
Q 900 650 1200 587 
Q 1500 525 1825 600 
Q 2150 675 2275 950 
Q 2400 1225 2362 1500 
Q 2325 1775 2050 1962 
Q 1775 2150 1450 2125 
Q 1125 2100 912 1900 
Q 700 1700 687 1400 
z
M 775 3350 
Q 775 3100 950 2875 
Q 1125 2650 1500 2650 
Q 1875 2650 2062 2875 
Q 2250 3100 2237 3412 
Q 2225 3725 2012 3875 
Q 1800 4025 1437 4000 
Q 1075 3975 925 3787 
Q 775 3600 775 3350 
z
" transform="scale(0.015625)"/>
       </defs>
       <use xlink:href="#SimHei-30"/>
       <use xlink:href="#SimHei-2e" x="50"/>
       <use xlink:href="#SimHei-38" x="100"/>
      </g>
     </g>
    </g>
    <g id="xtick_6">
     <g id="line2d_11">
      <path d="M 648 512.64 
L 648 69.12 
" clip-path="url(#pdd411b56c8)" style="fill: none; stroke: #ffffff; stroke-width: 0.8; stroke-linecap: square"/>
     </g>
     <g id="line2d_12">
      <g>
       <use xlink:href="#m0985380d8a" x="648" y="512.64" style="fill: #555555; stroke: #555555; stroke-width: 0.8"/>
      </g>
     </g>
     <g id="text_6">
      <!-- 1.0 -->
      <g style="fill: #555555" transform="translate(640.5 526.515) scale(0.1 -0.1)">
       <defs>
        <path id="SimHei-31" d="M 1400 3600 
Q 1075 3275 575 2975 
L 575 3450 
Q 1200 3875 1600 4450 
L 1900 4450 
L 1900 150 
L 1400 150 
L 1400 3600 
z
" transform="scale(0.015625)"/>
       </defs>
       <use xlink:href="#SimHei-31"/>
       <use xlink:href="#SimHei-2e" x="50"/>
       <use xlink:href="#SimHei-30" x="100"/>
      </g>
     </g>
    </g>
    <g id="text_7">
     <!-- False Positive Rate -->
     <g style="fill: #555555" transform="translate(312 540.015) scale(0.12 -0.12)">
      <defs>
       <path id="SimHei-46" d="M 2925 3925 
L 875 3925 
L 875 2525 
L 2425 2525 
L 2425 2050 
L 875 2050 
L 875 125 
L 300 125 
L 300 4400 
L 2925 4400 
L 2925 3925 
z
" transform="scale(0.015625)"/>
       <path id="SimHei-61" d="M 2875 125 
L 2275 125 
Q 2225 175 2200 262 
Q 2175 350 2175 475 
Q 2000 275 1750 175 
Q 1500 75 1225 75 
Q 825 75 550 275 
Q 275 475 275 850 
Q 275 1225 525 1450 
Q 775 1675 1300 1750 
Q 1650 1800 1912 1875 
Q 2175 1950 2175 2075 
Q 2175 2225 2062 2375 
Q 1950 2525 1575 2525 
Q 1275 2525 1137 2412 
Q 1000 2300 950 2100 
L 400 2100 
Q 450 2500 762 2737 
Q 1075 2975 1575 2975 
Q 2125 2975 2400 2725 
Q 2675 2475 2675 2025 
L 2675 650 
Q 2675 500 2725 375 
Q 2775 250 2875 125 
z
M 2175 1050 
L 2175 1550 
Q 2025 1500 1887 1462 
Q 1750 1425 1425 1375 
Q 1050 1325 937 1200 
Q 825 1075 825 900 
Q 825 750 937 637 
Q 1050 525 1275 525 
Q 1500 525 1762 650 
Q 2025 775 2175 1050 
z
" transform="scale(0.015625)"/>
       <path id="SimHei-6c" d="M 1825 125 
L 1325 125 
L 1325 4400 
L 1825 4400 
L 1825 125 
z
" transform="scale(0.015625)"/>
       <path id="SimHei-73" d="M 2750 900 
Q 2750 500 2437 287 
Q 2125 75 1650 75 
Q 1050 75 725 312 
Q 400 550 400 1000 
L 900 1000 
Q 900 700 1112 600 
Q 1325 500 1625 500 
Q 1925 500 2075 612 
Q 2225 725 2225 900 
Q 2225 1025 2100 1150 
Q 1975 1275 1475 1350 
Q 900 1425 687 1637 
Q 475 1850 475 2200 
Q 475 2500 762 2737 
Q 1050 2975 1600 2975 
Q 2100 2975 2387 2750 
Q 2675 2525 2675 2150 
L 2175 2150 
Q 2175 2375 2012 2462 
Q 1850 2550 1600 2550 
Q 1275 2550 1137 2437 
Q 1000 2325 1000 2175 
Q 1000 2000 1125 1900 
Q 1250 1800 1650 1750 
Q 2300 1650 2525 1437 
Q 2750 1225 2750 900 
z
" transform="scale(0.015625)"/>
       <path id="SimHei-65" d="M 2850 1075 
Q 2800 625 2450 350 
Q 2100 75 1625 75 
Q 1025 75 637 462 
Q 250 850 250 1525 
Q 250 2200 637 2587 
Q 1025 2975 1625 2975 
Q 2150 2975 2487 2637 
Q 2825 2300 2825 1525 
L 800 1525 
Q 800 975 1037 750 
Q 1275 525 1625 525 
Q 1900 525 2075 662 
Q 2250 800 2300 1075 
L 2850 1075 
z
M 2250 1925 
Q 2200 2275 2025 2412 
Q 1850 2550 1575 2550 
Q 1325 2550 1125 2412 
Q 925 2275 825 1925 
L 2250 1925 
z
" transform="scale(0.015625)"/>
       <path id="SimHei-20" transform="scale(0.015625)"/>
       <path id="SimHei-50" d="M 2950 3100 
Q 2950 2500 2600 2150 
Q 2250 1800 1625 1800 
L 900 1800 
L 900 125 
L 325 125 
L 325 4400 
L 1625 4400 
Q 2250 4400 2600 4050 
Q 2950 3700 2950 3100 
z
M 2375 3100 
Q 2375 3575 2150 3750 
Q 1925 3925 1475 3925 
L 900 3925 
L 900 2275 
L 1475 2275 
Q 1925 2275 2150 2450 
Q 2375 2625 2375 3100 
z
" transform="scale(0.015625)"/>
       <path id="SimHei-6f" d="M 2925 1525 
Q 2925 875 2525 475 
Q 2125 75 1575 75 
Q 1025 75 625 475 
Q 225 875 225 1525 
Q 225 2175 625 2575 
Q 1025 2975 1575 2975 
Q 2125 2975 2525 2575 
Q 2925 2175 2925 1525 
z
M 2375 1525 
Q 2375 2025 2125 2275 
Q 1875 2525 1575 2525 
Q 1275 2525 1025 2275 
Q 775 2025 775 1525 
Q 775 1025 1025 775 
Q 1275 525 1575 525 
Q 1875 525 2125 775 
Q 2375 1025 2375 1525 
z
" transform="scale(0.015625)"/>
       <path id="SimHei-69" d="M 1800 3725 
L 1300 3725 
L 1300 4375 
L 1800 4375 
L 1800 3725 
z
M 1800 125 
L 1300 125 
L 1300 2925 
L 1800 2925 
L 1800 125 
z
" transform="scale(0.015625)"/>
       <path id="SimHei-74" d="M 2750 200 
Q 2625 150 2462 112 
Q 2300 75 2025 75 
Q 1575 75 1300 325 
Q 1025 575 1025 1025 
L 1025 2525 
L 175 2525 
L 175 2925 
L 1025 2925 
L 1025 3900 
L 1525 3900 
L 1525 2925 
L 2550 2925 
L 2550 2525 
L 1525 2525 
L 1525 1000 
Q 1525 800 1625 662 
Q 1725 525 2000 525 
Q 2275 525 2450 575 
Q 2625 625 2750 700 
L 2750 200 
z
" transform="scale(0.015625)"/>
       <path id="SimHei-76" d="M 2875 2925 
L 1825 75 
L 1275 75 
L 225 2925 
L 750 2925 
L 1525 750 
L 1575 750 
L 2350 2925 
L 2875 2925 
z
" transform="scale(0.015625)"/>
       <path id="SimHei-52" d="M 3000 125 
L 2400 125 
L 1500 1975 
L 850 1975 
L 850 125 
L 275 125 
L 275 4400 
L 1525 4400 
Q 2125 4400 2500 4112 
Q 2875 3825 2875 3175 
Q 2875 2675 2625 2400 
Q 2375 2125 2050 2050 
L 3000 125 
z
M 2300 3175 
Q 2300 3525 2087 3725 
Q 1875 3925 1400 3925 
L 850 3925 
L 850 2450 
L 1550 2450 
Q 1850 2450 2075 2612 
Q 2300 2775 2300 3175 
z
" transform="scale(0.015625)"/>
      </defs>
      <use xlink:href="#SimHei-46"/>
      <use xlink:href="#SimHei-61" x="50"/>
      <use xlink:href="#SimHei-6c" x="100"/>
      <use xlink:href="#SimHei-73" x="150"/>
      <use xlink:href="#SimHei-65" x="200"/>
      <use xlink:href="#SimHei-20" x="250"/>
      <use xlink:href="#SimHei-50" x="300"/>
      <use xlink:href="#SimHei-6f" x="350"/>
      <use xlink:href="#SimHei-73" x="400"/>
      <use xlink:href="#SimHei-69" x="450"/>
      <use xlink:href="#SimHei-74" x="500"/>
      <use xlink:href="#SimHei-69" x="550"/>
      <use xlink:href="#SimHei-76" x="600"/>
      <use xlink:href="#SimHei-65" x="650"/>
      <use xlink:href="#SimHei-20" x="700"/>
      <use xlink:href="#SimHei-52" x="750"/>
      <use xlink:href="#SimHei-61" x="800"/>
      <use xlink:href="#SimHei-74" x="850"/>
      <use xlink:href="#SimHei-65" x="900"/>
     </g>
    </g>
   </g>
   <g id="matplotlib.axis_2">
    <g id="ytick_1">
     <g id="line2d_13">
      <path d="M 90 512.64 
L 648 512.64 
" clip-path="url(#pdd411b56c8)" style="fill: none; stroke: #ffffff; stroke-width: 0.8; stroke-linecap: square"/>
     </g>
     <g id="line2d_14">
      <defs>
       <path id="m81f660bc2e" d="M 0 0 
L -3.5 0 
" style="stroke: #555555; stroke-width: 0.8"/>
      </defs>
      <g>
       <use xlink:href="#m81f660bc2e" x="90" y="512.64" style="fill: #555555; stroke: #555555; stroke-width: 0.8"/>
      </g>
     </g>
     <g id="text_8">
      <!-- 0.0 -->
      <g style="fill: #555555" transform="translate(68 516.0775) scale(0.1 -0.1)">
       <use xlink:href="#SimHei-30"/>
       <use xlink:href="#SimHei-2e" x="50"/>
       <use xlink:href="#SimHei-30" x="100"/>
      </g>
     </g>
    </g>
    <g id="ytick_2">
     <g id="line2d_15">
      <path d="M 90 428.16 
L 648 428.16 
" clip-path="url(#pdd411b56c8)" style="fill: none; stroke: #ffffff; stroke-width: 0.8; stroke-linecap: square"/>
     </g>
     <g id="line2d_16">
      <g>
       <use xlink:href="#m81f660bc2e" x="90" y="428.16" style="fill: #555555; stroke: #555555; stroke-width: 0.8"/>
      </g>
     </g>
     <g id="text_9">
      <!-- 0.2 -->
      <g style="fill: #555555" transform="translate(68 431.5975) scale(0.1 -0.1)">
       <use xlink:href="#SimHei-30"/>
       <use xlink:href="#SimHei-2e" x="50"/>
       <use xlink:href="#SimHei-32" x="100"/>
      </g>
     </g>
    </g>
    <g id="ytick_3">
     <g id="line2d_17">
      <path d="M 90 343.68 
L 648 343.68 
" clip-path="url(#pdd411b56c8)" style="fill: none; stroke: #ffffff; stroke-width: 0.8; stroke-linecap: square"/>
     </g>
     <g id="line2d_18">
      <g>
       <use xlink:href="#m81f660bc2e" x="90" y="343.68" style="fill: #555555; stroke: #555555; stroke-width: 0.8"/>
      </g>
     </g>
     <g id="text_10">
      <!-- 0.4 -->
      <g style="fill: #555555" transform="translate(68 347.1175) scale(0.1 -0.1)">
       <use xlink:href="#SimHei-30"/>
       <use xlink:href="#SimHei-2e" x="50"/>
       <use xlink:href="#SimHei-34" x="100"/>
      </g>
     </g>
    </g>
    <g id="ytick_4">
     <g id="line2d_19">
      <path d="M 90 259.2 
L 648 259.2 
" clip-path="url(#pdd411b56c8)" style="fill: none; stroke: #ffffff; stroke-width: 0.8; stroke-linecap: square"/>
     </g>
     <g id="line2d_20">
      <g>
       <use xlink:href="#m81f660bc2e" x="90" y="259.2" style="fill: #555555; stroke: #555555; stroke-width: 0.8"/>
      </g>
     </g>
     <g id="text_11">
      <!-- 0.6 -->
      <g style="fill: #555555" transform="translate(68 262.6375) scale(0.1 -0.1)">
       <use xlink:href="#SimHei-30"/>
       <use xlink:href="#SimHei-2e" x="50"/>
       <use xlink:href="#SimHei-36" x="100"/>
      </g>
     </g>
    </g>
    <g id="ytick_5">
     <g id="line2d_21">
      <path d="M 90 174.72 
L 648 174.72 
" clip-path="url(#pdd411b56c8)" style="fill: none; stroke: #ffffff; stroke-width: 0.8; stroke-linecap: square"/>
     </g>
     <g id="line2d_22">
      <g>
       <use xlink:href="#m81f660bc2e" x="90" y="174.72" style="fill: #555555; stroke: #555555; stroke-width: 0.8"/>
      </g>
     </g>
     <g id="text_12">
      <!-- 0.8 -->
      <g style="fill: #555555" transform="translate(68 178.1575) scale(0.1 -0.1)">
       <use xlink:href="#SimHei-30"/>
       <use xlink:href="#SimHei-2e" x="50"/>
       <use xlink:href="#SimHei-38" x="100"/>
      </g>
     </g>
    </g>
    <g id="ytick_6">
     <g id="line2d_23">
      <path d="M 90 90.24 
L 648 90.24 
" clip-path="url(#pdd411b56c8)" style="fill: none; stroke: #ffffff; stroke-width: 0.8; stroke-linecap: square"/>
     </g>
     <g id="line2d_24">
      <g>
       <use xlink:href="#m81f660bc2e" x="90" y="90.24" style="fill: #555555; stroke: #555555; stroke-width: 0.8"/>
      </g>
     </g>
     <g id="text_13">
      <!-- 1.0 -->
      <g style="fill: #555555" transform="translate(68 93.6775) scale(0.1 -0.1)">
       <use xlink:href="#SimHei-31"/>
       <use xlink:href="#SimHei-2e" x="50"/>
       <use xlink:href="#SimHei-30" x="100"/>
      </g>
     </g>
    </g>
    <g id="text_14">
     <!-- True Positive Rate -->
     <g style="fill: #555555" transform="translate(62.5 344.88) rotate(-90) scale(0.12 -0.12)">
      <defs>
       <path id="SimHei-54" d="M 2850 3925 
L 1850 3925 
L 1850 125 
L 1275 125 
L 1275 3925 
L 275 3925 
L 275 4400 
L 2850 4400 
L 2850 3925 
z
" transform="scale(0.015625)"/>
       <path id="SimHei-72" d="M 2500 2425 
Q 2025 2500 1700 2287 
Q 1375 2075 1150 1550 
L 1150 125 
L 650 125 
L 650 2925 
L 1150 2925 
L 1150 2200 
Q 1375 2600 1712 2787 
Q 2050 2975 2500 2975 
L 2500 2425 
z
" transform="scale(0.015625)"/>
       <path id="SimHei-75" d="M 2800 125 
L 2300 125 
L 2300 650 
Q 2100 375 1862 225 
Q 1625 75 1250 75 
Q 800 75 575 325 
Q 350 575 350 950 
L 350 2925 
L 850 2925 
L 850 1125 
Q 850 825 1000 650 
Q 1150 475 1400 475 
Q 1725 475 2012 812 
Q 2300 1150 2300 1650 
L 2300 2925 
L 2800 2925 
L 2800 125 
z
" transform="scale(0.015625)"/>
      </defs>
      <use xlink:href="#SimHei-54"/>
      <use xlink:href="#SimHei-72" x="50"/>
      <use xlink:href="#SimHei-75" x="100"/>
      <use xlink:href="#SimHei-65" x="150"/>
      <use xlink:href="#SimHei-20" x="200"/>
      <use xlink:href="#SimHei-50" x="250"/>
      <use xlink:href="#SimHei-6f" x="300"/>
      <use xlink:href="#SimHei-73" x="350"/>
      <use xlink:href="#SimHei-69" x="400"/>
      <use xlink:href="#SimHei-74" x="450"/>
      <use xlink:href="#SimHei-69" x="500"/>
      <use xlink:href="#SimHei-76" x="550"/>
      <use xlink:href="#SimHei-65" x="600"/>
      <use xlink:href="#SimHei-20" x="650"/>
      <use xlink:href="#SimHei-52" x="700"/>
      <use xlink:href="#SimHei-61" x="750"/>
      <use xlink:href="#SimHei-74" x="800"/>
      <use xlink:href="#SimHei-65" x="850"/>
     </g>
    </g>
   </g>
   <g id="patch_3">
    <path d="M 90 132.48 
L 191.454545 132.48 
L 191.454545 69.12 
L 90 69.12 
L 90 132.48 
z
" clip-path="url(#pdd411b56c8)" style="fill: none; stroke: #808080; stroke-width: 0.5; stroke-linejoin: miter"/>
   </g>
   <g id="line2d_25">
    <path d="M 140.727273 512.64 
L 140.833859 90.417412 
L 142.127106 90.310965 
L 142.127106 90.302094 
L 648 90.24 
L 648 90.24 
" clip-path="url(#pdd411b56c8)" style="fill: none; stroke: #00ffff; stroke-width: 2; stroke-linecap: square"/>
   </g>
   <g id="line2d_26">
    <path d="M 140.727273 512.64 
L 140.837541 92.909557 
L 140.841098 92.909557 
L 140.951366 91.5571 
L 141.004722 91.451024 
L 141.11499 91.141639 
L 141.200359 91.035563 
L 141.310627 90.88529 
L 141.424452 90.779215 
L 141.527606 90.690819 
L 142.050491 90.593584 
L 142.118075 90.567065 
L 143.434179 90.46099 
L 143.434179 90.45215 
L 150.722549 90.346075 
L 150.722549 90.337236 
L 648 90.24 
L 648 90.24 
" clip-path="url(#pdd411b56c8)" style="fill: none; stroke: #ff8c00; stroke-width: 2; stroke-linecap: square"/>
   </g>
   <g id="line2d_27">
    <path d="M 140.727273 512.64 
L 140.837398 99.273681 
L 140.84095 99.273681 
L 140.951076 93.940437 
L 140.954628 93.940437 
L 141.061201 92.653714 
L 141.078963 92.609345 
L 141.178431 91.917176 
L 141.210403 91.819563 
L 141.320528 91.553345 
L 141.359605 91.473479 
L 141.455521 91.269378 
L 141.597618 91.162891 
L 141.686429 91.065277 
L 141.821421 90.95879 
L 141.931546 90.87005 
L 142.183769 90.763563 
L 142.226398 90.719193 
L 142.812549 90.612706 
L 142.912017 90.57721 
L 144.418247 90.470723 
L 144.418247 90.461849 
L 146.944024 90.355361 
L 146.944024 90.346487 
L 648 90.24 
L 648 90.24 
" clip-path="url(#pdd411b56c8)" style="fill: none; stroke: #6495ed; stroke-width: 2; stroke-linecap: square"/>
   </g>
   <g id="line2d_28">
    <path d="M 140.727273 512.64 
L 140.837239 92.067105 
L 140.844333 91.960153 
L 140.950752 91.033231 
L 141.000414 90.935191 
L 141.085549 90.739112 
L 141.202609 90.632159 
L 141.287744 90.560858 
L 141.649567 90.453905 
L 141.731155 90.43608 
L 144.310033 90.329127 
L 144.310033 90.320214 
L 648 90.24 
L 648 90.24 
" clip-path="url(#pdd411b56c8)" style="fill: none; stroke: #008000; stroke-width: 2; stroke-linecap: square"/>
   </g>
   <g id="line2d_29">
    <path d="M 140.727273 512.64 
L 648 90.24 
" clip-path="url(#pdd411b56c8)" style="fill: none; stroke-dasharray: 7.4,3.2; stroke-dashoffset: 0; stroke: #000000; stroke-width: 2"/>
   </g>
   <g id="patch_4">
    <path d="M 90 512.64 
L 90 69.12 
" style="fill: none; stroke: #ffffff; stroke-linejoin: miter; stroke-linecap: square"/>
   </g>
   <g id="patch_5">
    <path d="M 648 512.64 
L 648 69.12 
" style="fill: none; stroke: #ffffff; stroke-linejoin: miter; stroke-linecap: square"/>
   </g>
   <g id="patch_6">
    <path d="M 90 512.64 
L 648 512.64 
" style="fill: none; stroke: #ffffff; stroke-linejoin: miter; stroke-linecap: square"/>
   </g>
   <g id="patch_7">
    <path d="M 90 69.12 
L 648 69.12 
" style="fill: none; stroke: #ffffff; stroke-linejoin: miter; stroke-linecap: square"/>
   </g>
   <g id="text_15">
    <!-- Receiver Operating Characteristic (ROC) for Multi-class -->
    <g transform="translate(171 63.12) scale(0.144 -0.144)">
     <defs>
      <path id="SimHei-63" d="M 2850 1250 
Q 2850 725 2487 400 
Q 2125 75 1575 75 
Q 1025 75 625 462 
Q 225 850 225 1525 
Q 225 2200 625 2587 
Q 1025 2975 1575 2975 
Q 2125 2975 2450 2687 
Q 2775 2400 2775 2000 
L 2225 2000 
Q 2200 2300 2012 2412 
Q 1825 2525 1575 2525 
Q 1275 2525 1025 2287 
Q 775 2050 775 1525 
Q 775 1000 1025 762 
Q 1275 525 1575 525 
Q 1900 525 2100 700 
Q 2300 875 2300 1250 
L 2850 1250 
z
" transform="scale(0.015625)"/>
      <path id="SimHei-4f" d="M 2950 2275 
Q 2950 1100 2587 587 
Q 2225 75 1575 75 
Q 925 75 550 587 
Q 175 1100 175 2275 
Q 175 3450 550 3950 
Q 925 4450 1575 4450 
Q 2225 4450 2587 3950 
Q 2950 3450 2950 2275 
z
M 2350 2275 
Q 2350 3325 2125 3650 
Q 1900 3975 1575 3975 
Q 1250 3975 1012 3650 
Q 775 3325 775 2275 
Q 775 1225 1012 887 
Q 1250 550 1575 550 
Q 1900 550 2125 887 
Q 2350 1225 2350 2275 
z
" transform="scale(0.015625)"/>
      <path id="SimHei-70" d="M 2825 1525 
Q 2825 800 2475 425 
Q 2125 50 1625 50 
Q 1350 50 1150 162 
Q 950 275 800 500 
L 800 -800 
L 300 -800 
L 300 2925 
L 800 2925 
L 800 2550 
Q 950 2775 1150 2875 
Q 1350 2975 1625 2975 
Q 2125 2975 2475 2612 
Q 2825 2250 2825 1525 
z
M 2275 1525 
Q 2275 2000 2087 2262 
Q 1900 2525 1525 2525 
Q 1225 2525 1012 2262 
Q 800 2000 800 1525 
Q 800 1050 1012 775 
Q 1225 500 1525 500 
Q 1900 500 2087 775 
Q 2275 1050 2275 1525 
z
" transform="scale(0.015625)"/>
      <path id="SimHei-6e" d="M 2800 125 
L 2300 125 
L 2300 1925 
Q 2300 2225 2150 2400 
Q 2000 2575 1750 2575 
Q 1425 2575 1137 2237 
Q 850 1900 850 1400 
L 850 125 
L 350 125 
L 350 2925 
L 850 2925 
L 850 2400 
Q 1050 2675 1287 2825 
Q 1525 2975 1900 2975 
Q 2350 2975 2575 2725 
Q 2800 2475 2800 2100 
L 2800 125 
z
" transform="scale(0.015625)"/>
      <path id="SimHei-67" d="M 2975 2500 
Q 2800 2550 2637 2562 
Q 2475 2575 2300 2525 
Q 2375 2450 2425 2337 
Q 2475 2225 2475 2000 
Q 2475 1575 2187 1300 
Q 1900 1025 1475 1025 
Q 1375 1025 1212 1062 
Q 1050 1100 950 1150 
Q 875 1100 850 1050 
Q 825 1000 825 925 
Q 825 800 1000 737 
Q 1175 675 1625 675 
Q 2350 675 2612 475 
Q 2875 275 2875 -25 
Q 2875 -425 2487 -612 
Q 2100 -800 1575 -800 
Q 900 -800 575 -625 
Q 250 -450 250 -150 
Q 250 0 375 150 
Q 500 300 700 400 
Q 550 475 462 587 
Q 375 700 375 875 
Q 375 1025 487 1137 
Q 600 1250 750 1325 
Q 625 1450 550 1625 
Q 475 1800 475 2000 
Q 475 2425 762 2700 
Q 1050 2975 1475 2975 
Q 1700 2975 1862 2912 
Q 2025 2850 2150 2725 
Q 2350 2875 2550 2937 
Q 2750 3000 2975 2975 
L 2975 2500 
z
M 1975 2000 
Q 1975 2250 1850 2400 
Q 1725 2550 1475 2550 
Q 1225 2550 1100 2400 
Q 975 2250 975 2000 
Q 975 1750 1100 1600 
Q 1225 1450 1475 1450 
Q 1725 1450 1850 1600 
Q 1975 1750 1975 2000 
z
M 2400 -75 
Q 2400 25 2287 125 
Q 2175 225 1725 225 
Q 1625 225 1450 237 
Q 1275 250 1050 275 
Q 850 200 775 100 
Q 700 0 700 -100 
Q 700 -250 900 -350 
Q 1100 -450 1600 -450 
Q 2025 -450 2212 -337 
Q 2400 -225 2400 -75 
z
" transform="scale(0.015625)"/>
      <path id="SimHei-43" d="M 2975 1825 
Q 2950 875 2575 475 
Q 2200 75 1675 75 
Q 1075 75 650 562 
Q 225 1050 225 2125 
Q 225 3300 637 3875 
Q 1050 4450 1700 4450 
Q 2250 4450 2612 4037 
Q 2975 3625 2950 2875 
L 2400 2875 
Q 2400 3425 2225 3700 
Q 2050 3975 1700 3975 
Q 1300 3975 1062 3562 
Q 825 3150 825 2175 
Q 825 1275 1062 912 
Q 1300 550 1675 550 
Q 1950 550 2175 812 
Q 2400 1075 2400 1825 
L 2975 1825 
z
" transform="scale(0.015625)"/>
      <path id="SimHei-68" d="M 2800 125 
L 2300 125 
L 2300 1925 
Q 2300 2225 2150 2400 
Q 2000 2575 1750 2575 
Q 1425 2575 1137 2237 
Q 850 1900 850 1400 
L 850 125 
L 350 125 
L 350 4400 
L 850 4400 
L 850 2400 
Q 1050 2675 1287 2825 
Q 1525 2975 1900 2975 
Q 2350 2975 2575 2725 
Q 2800 2475 2800 2100 
L 2800 125 
z
" transform="scale(0.015625)"/>
      <path id="SimHei-28" d="M 2975 -200 
L 2700 -475 
Q 2075 125 1762 775 
Q 1450 1425 1450 2250 
Q 1450 3075 1762 3725 
Q 2075 4375 2700 5000 
L 2975 4725 
Q 2400 4175 2112 3587 
Q 1825 3000 1825 2250 
Q 1825 1500 2112 912 
Q 2400 325 2975 -200 
z
" transform="scale(0.015625)"/>
      <path id="SimHei-29" d="M 1675 2250 
Q 1675 1425 1362 775 
Q 1050 125 425 -475 
L 150 -200 
Q 725 325 1012 912 
Q 1300 1500 1300 2250 
Q 1300 3000 1012 3587 
Q 725 4175 150 4725 
L 425 5000 
Q 1050 4375 1362 3725 
Q 1675 3075 1675 2250 
z
" transform="scale(0.015625)"/>
      <path id="SimHei-66" d="M 2850 3825 
Q 2725 3900 2550 3950 
Q 2375 4000 2100 4000 
Q 1825 4000 1725 3862 
Q 1625 3725 1625 3525 
L 1625 2925 
L 2650 2925 
L 2650 2525 
L 1625 2525 
L 1625 125 
L 1125 125 
L 1125 2525 
L 275 2525 
L 275 2925 
L 1125 2925 
L 1125 3500 
Q 1125 3950 1400 4200 
Q 1675 4450 2125 4450 
Q 2400 4450 2562 4412 
Q 2725 4375 2850 4325 
L 2850 3825 
z
" transform="scale(0.015625)"/>
      <path id="SimHei-4d" d="M 2925 125 
L 2425 125 
L 2425 3175 
L 2375 3175 
L 1775 125 
L 1375 125 
L 775 3175 
L 725 3175 
L 725 125 
L 225 125 
L 225 4400 
L 1000 4400 
L 1550 1575 
L 1600 1575 
L 2150 4400 
L 2925 4400 
L 2925 125 
z
" transform="scale(0.015625)"/>
      <path id="SimHei-2d" d="M 2975 2125 
L 125 2125 
L 125 2525 
L 2975 2525 
L 2975 2125 
z
" transform="scale(0.015625)"/>
     </defs>
     <use xlink:href="#SimHei-52"/>
     <use xlink:href="#SimHei-65" x="50"/>
     <use xlink:href="#SimHei-63" x="100"/>
     <use xlink:href="#SimHei-65" x="150"/>
     <use xlink:href="#SimHei-69" x="200"/>
     <use xlink:href="#SimHei-76" x="250"/>
     <use xlink:href="#SimHei-65" x="300"/>
     <use xlink:href="#SimHei-72" x="350"/>
     <use xlink:href="#SimHei-20" x="400"/>
     <use xlink:href="#SimHei-4f" x="450"/>
     <use xlink:href="#SimHei-70" x="500"/>
     <use xlink:href="#SimHei-65" x="550"/>
     <use xlink:href="#SimHei-72" x="600"/>
     <use xlink:href="#SimHei-61" x="650"/>
     <use xlink:href="#SimHei-74" x="700"/>
     <use xlink:href="#SimHei-69" x="750"/>
     <use xlink:href="#SimHei-6e" x="800"/>
     <use xlink:href="#SimHei-67" x="850"/>
     <use xlink:href="#SimHei-20" x="900"/>
     <use xlink:href="#SimHei-43" x="950"/>
     <use xlink:href="#SimHei-68" x="1000"/>
     <use xlink:href="#SimHei-61" x="1050"/>
     <use xlink:href="#SimHei-72" x="1100"/>
     <use xlink:href="#SimHei-61" x="1150"/>
     <use xlink:href="#SimHei-63" x="1200"/>
     <use xlink:href="#SimHei-74" x="1250"/>
     <use xlink:href="#SimHei-65" x="1300"/>
     <use xlink:href="#SimHei-72" x="1350"/>
     <use xlink:href="#SimHei-69" x="1400"/>
     <use xlink:href="#SimHei-73" x="1450"/>
     <use xlink:href="#SimHei-74" x="1500"/>
     <use xlink:href="#SimHei-69" x="1550"/>
     <use xlink:href="#SimHei-63" x="1600"/>
     <use xlink:href="#SimHei-20" x="1650"/>
     <use xlink:href="#SimHei-28" x="1700"/>
     <use xlink:href="#SimHei-52" x="1750"/>
     <use xlink:href="#SimHei-4f" x="1800"/>
     <use xlink:href="#SimHei-43" x="1850"/>
     <use xlink:href="#SimHei-29" x="1900"/>
     <use xlink:href="#SimHei-20" x="1950"/>
     <use xlink:href="#SimHei-66" x="2000"/>
     <use xlink:href="#SimHei-6f" x="2050"/>
     <use xlink:href="#SimHei-72" x="2100"/>
     <use xlink:href="#SimHei-20" x="2150"/>
     <use xlink:href="#SimHei-4d" x="2200"/>
     <use xlink:href="#SimHei-75" x="2250"/>
     <use xlink:href="#SimHei-6c" x="2300"/>
     <use xlink:href="#SimHei-74" x="2350"/>
     <use xlink:href="#SimHei-69" x="2400"/>
     <use xlink:href="#SimHei-2d" x="2450"/>
     <use xlink:href="#SimHei-63" x="2500"/>
     <use xlink:href="#SimHei-6c" x="2550"/>
     <use xlink:href="#SimHei-61" x="2600"/>
     <use xlink:href="#SimHei-73" x="2650"/>
     <use xlink:href="#SimHei-73" x="2700"/>
    </g>
   </g>
   <g id="axes_2">
    <g id="patch_8">
     <path d="M 369 290.88 
L 592.2 290.88 
L 592.2 113.472 
L 369 113.472 
z
" style="fill: #e5e5e5"/>
    </g>
    <g id="matplotlib.axis_3">
     <g id="xtick_7">
      <g id="line2d_30">
       <path d="M 369 290.88 
L 369 113.472 
" clip-path="url(#p5139dba072)" style="fill: none; stroke: #ffffff; stroke-width: 0.8; stroke-linecap: square"/>
      </g>
      <g id="line2d_31">
       <g>
        <use xlink:href="#m0985380d8a" x="369" y="290.88" style="fill: #555555; stroke: #555555; stroke-width: 0.8"/>
       </g>
      </g>
      <g id="text_16">
       <!-- -0.100 -->
       <g style="fill: #555555" transform="translate(357 303.38) scale(0.08 -0.08)">
        <use xlink:href="#SimHei-2d"/>
        <use xlink:href="#SimHei-30" x="50"/>
        <use xlink:href="#SimHei-2e" x="100"/>
        <use xlink:href="#SimHei-31" x="150"/>
        <use xlink:href="#SimHei-30" x="200"/>
        <use xlink:href="#SimHei-30" x="250"/>
       </g>
      </g>
     </g>
     <g id="xtick_8">
      <g id="line2d_32">
       <path d="M 396.9 290.88 
L 396.9 113.472 
" clip-path="url(#p5139dba072)" style="fill: none; stroke: #ffffff; stroke-width: 0.8; stroke-linecap: square"/>
      </g>
      <g id="line2d_33">
       <g>
        <use xlink:href="#m0985380d8a" x="396.9" y="290.88" style="fill: #555555; stroke: #555555; stroke-width: 0.8"/>
       </g>
      </g>
      <g id="text_17">
       <!-- -0.075 -->
       <g style="fill: #555555" transform="translate(384.9 303.38) scale(0.08 -0.08)">
        <defs>
         <path id="SimHei-37" d="M 850 150 
Q 1300 2050 2425 3925 
L 275 3925 
L 275 4375 
L 2950 4375 
L 2950 3950 
Q 1775 2050 1400 150 
L 850 150 
z
" transform="scale(0.015625)"/>
         <path id="SimHei-35" d="M 550 1325 
Q 725 650 1150 575 
Q 1575 500 1837 662 
Q 2100 825 2212 1087 
Q 2325 1350 2312 1675 
Q 2300 2000 2137 2225 
Q 1975 2450 1725 2525 
Q 1475 2600 1162 2525 
Q 850 2450 650 2175 
L 225 2225 
Q 275 2375 700 4375 
L 2675 4375 
L 2675 3925 
L 1075 3925 
Q 950 3250 825 2850 
Q 1200 3025 1525 3012 
Q 1850 3000 2150 2862 
Q 2450 2725 2587 2487 
Q 2725 2250 2787 2012 
Q 2850 1775 2837 1500 
Q 2825 1225 2725 937 
Q 2625 650 2425 462 
Q 2225 275 1937 162 
Q 1650 50 1275 75 
Q 900 100 562 350 
Q 225 600 100 1200 
L 550 1325 
z
" transform="scale(0.015625)"/>
        </defs>
        <use xlink:href="#SimHei-2d"/>
        <use xlink:href="#SimHei-30" x="50"/>
        <use xlink:href="#SimHei-2e" x="100"/>
        <use xlink:href="#SimHei-30" x="150"/>
        <use xlink:href="#SimHei-37" x="200"/>
        <use xlink:href="#SimHei-35" x="250"/>
       </g>
      </g>
     </g>
     <g id="xtick_9">
      <g id="line2d_34">
       <path d="M 424.8 290.88 
L 424.8 113.472 
" clip-path="url(#p5139dba072)" style="fill: none; stroke: #ffffff; stroke-width: 0.8; stroke-linecap: square"/>
      </g>
      <g id="line2d_35">
       <g>
        <use xlink:href="#m0985380d8a" x="424.8" y="290.88" style="fill: #555555; stroke: #555555; stroke-width: 0.8"/>
       </g>
      </g>
      <g id="text_18">
       <!-- -0.050 -->
       <g style="fill: #555555" transform="translate(412.8 303.38) scale(0.08 -0.08)">
        <use xlink:href="#SimHei-2d"/>
        <use xlink:href="#SimHei-30" x="50"/>
        <use xlink:href="#SimHei-2e" x="100"/>
        <use xlink:href="#SimHei-30" x="150"/>
        <use xlink:href="#SimHei-35" x="200"/>
        <use xlink:href="#SimHei-30" x="250"/>
       </g>
      </g>
     </g>
     <g id="xtick_10">
      <g id="line2d_36">
       <path d="M 452.7 290.88 
L 452.7 113.472 
" clip-path="url(#p5139dba072)" style="fill: none; stroke: #ffffff; stroke-width: 0.8; stroke-linecap: square"/>
      </g>
      <g id="line2d_37">
       <g>
        <use xlink:href="#m0985380d8a" x="452.7" y="290.88" style="fill: #555555; stroke: #555555; stroke-width: 0.8"/>
       </g>
      </g>
      <g id="text_19">
       <!-- -0.025 -->
       <g style="fill: #555555" transform="translate(440.7 303.38) scale(0.08 -0.08)">
        <use xlink:href="#SimHei-2d"/>
        <use xlink:href="#SimHei-30" x="50"/>
        <use xlink:href="#SimHei-2e" x="100"/>
        <use xlink:href="#SimHei-30" x="150"/>
        <use xlink:href="#SimHei-32" x="200"/>
        <use xlink:href="#SimHei-35" x="250"/>
       </g>
      </g>
     </g>
     <g id="xtick_11">
      <g id="line2d_38">
       <path d="M 480.6 290.88 
L 480.6 113.472 
" clip-path="url(#p5139dba072)" style="fill: none; stroke: #ffffff; stroke-width: 0.8; stroke-linecap: square"/>
      </g>
      <g id="line2d_39">
       <g>
        <use xlink:href="#m0985380d8a" x="480.6" y="290.88" style="fill: #555555; stroke: #555555; stroke-width: 0.8"/>
       </g>
      </g>
      <g id="text_20">
       <!-- 0.000 -->
       <g style="fill: #555555" transform="translate(470.6 303.38) scale(0.08 -0.08)">
        <use xlink:href="#SimHei-30"/>
        <use xlink:href="#SimHei-2e" x="50"/>
        <use xlink:href="#SimHei-30" x="100"/>
        <use xlink:href="#SimHei-30" x="150"/>
        <use xlink:href="#SimHei-30" x="200"/>
       </g>
      </g>
     </g>
     <g id="xtick_12">
      <g id="line2d_40">
       <path d="M 508.5 290.88 
L 508.5 113.472 
" clip-path="url(#p5139dba072)" style="fill: none; stroke: #ffffff; stroke-width: 0.8; stroke-linecap: square"/>
      </g>
      <g id="line2d_41">
       <g>
        <use xlink:href="#m0985380d8a" x="508.5" y="290.88" style="fill: #555555; stroke: #555555; stroke-width: 0.8"/>
       </g>
      </g>
      <g id="text_21">
       <!-- 0.025 -->
       <g style="fill: #555555" transform="translate(498.5 303.38) scale(0.08 -0.08)">
        <use xlink:href="#SimHei-30"/>
        <use xlink:href="#SimHei-2e" x="50"/>
        <use xlink:href="#SimHei-30" x="100"/>
        <use xlink:href="#SimHei-32" x="150"/>
        <use xlink:href="#SimHei-35" x="200"/>
       </g>
      </g>
     </g>
     <g id="xtick_13">
      <g id="line2d_42">
       <path d="M 536.4 290.88 
L 536.4 113.472 
" clip-path="url(#p5139dba072)" style="fill: none; stroke: #ffffff; stroke-width: 0.8; stroke-linecap: square"/>
      </g>
      <g id="line2d_43">
       <g>
        <use xlink:href="#m0985380d8a" x="536.4" y="290.88" style="fill: #555555; stroke: #555555; stroke-width: 0.8"/>
       </g>
      </g>
      <g id="text_22">
       <!-- 0.050 -->
       <g style="fill: #555555" transform="translate(526.4 303.38) scale(0.08 -0.08)">
        <use xlink:href="#SimHei-30"/>
        <use xlink:href="#SimHei-2e" x="50"/>
        <use xlink:href="#SimHei-30" x="100"/>
        <use xlink:href="#SimHei-35" x="150"/>
        <use xlink:href="#SimHei-30" x="200"/>
       </g>
      </g>
     </g>
     <g id="xtick_14">
      <g id="line2d_44">
       <path d="M 564.3 290.88 
L 564.3 113.472 
" clip-path="url(#p5139dba072)" style="fill: none; stroke: #ffffff; stroke-width: 0.8; stroke-linecap: square"/>
      </g>
      <g id="line2d_45">
       <g>
        <use xlink:href="#m0985380d8a" x="564.3" y="290.88" style="fill: #555555; stroke: #555555; stroke-width: 0.8"/>
       </g>
      </g>
      <g id="text_23">
       <!-- 0.075 -->
       <g style="fill: #555555" transform="translate(554.3 303.38) scale(0.08 -0.08)">
        <use xlink:href="#SimHei-30"/>
        <use xlink:href="#SimHei-2e" x="50"/>
        <use xlink:href="#SimHei-30" x="100"/>
        <use xlink:href="#SimHei-37" x="150"/>
        <use xlink:href="#SimHei-35" x="200"/>
       </g>
      </g>
     </g>
     <g id="xtick_15">
      <g id="line2d_46">
       <path d="M 592.2 290.88 
L 592.2 113.472 
" clip-path="url(#p5139dba072)" style="fill: none; stroke: #ffffff; stroke-width: 0.8; stroke-linecap: square"/>
      </g>
      <g id="line2d_47">
       <g>
        <use xlink:href="#m0985380d8a" x="592.2" y="290.88" style="fill: #555555; stroke: #555555; stroke-width: 0.8"/>
       </g>
      </g>
      <g id="text_24">
       <!-- 0.100 -->
       <g style="fill: #555555" transform="translate(582.2 303.38) scale(0.08 -0.08)">
        <use xlink:href="#SimHei-30"/>
        <use xlink:href="#SimHei-2e" x="50"/>
        <use xlink:href="#SimHei-31" x="100"/>
        <use xlink:href="#SimHei-30" x="150"/>
        <use xlink:href="#SimHei-30" x="200"/>
       </g>
      </g>
     </g>
    </g>
    <g id="matplotlib.axis_4">
     <g id="ytick_7">
      <g id="line2d_48">
       <path d="M 369 290.88 
L 592.2 290.88 
" clip-path="url(#p5139dba072)" style="fill: none; stroke: #ffffff; stroke-width: 0.8; stroke-linecap: square"/>
      </g>
      <g id="line2d_49">
       <g>
        <use xlink:href="#m81f660bc2e" x="369" y="290.88" style="fill: #555555; stroke: #555555; stroke-width: 0.8"/>
       </g>
      </g>
      <g id="text_25">
       <!-- 0.90 -->
       <g style="fill: #555555" transform="translate(346 293.63) scale(0.08 -0.08)">
        <defs>
         <path id="SimHei-39" d="M 800 75 
Q 1350 1000 1700 1750 
Q 1075 1650 662 1912 
Q 250 2175 162 2625 
Q 75 3075 175 3437 
Q 275 3800 487 4037 
Q 700 4275 1000 4375 
Q 1300 4475 1537 4475 
Q 1775 4475 2025 4375 
Q 2275 4275 2475 4075 
Q 2675 3875 2750 3662 
Q 2825 3450 2825 3112 
Q 2825 2775 2575 2250 
Q 2325 1725 1350 75 
L 800 75 
z
M 662 2875 
Q 700 2550 937 2337 
Q 1175 2125 1450 2150 
Q 1725 2175 1887 2300 
Q 2050 2425 2200 2725 
Q 2300 3100 2250 3362 
Q 2200 3625 1987 3800 
Q 1775 3975 1525 3975 
Q 1375 4000 1137 3900 
Q 900 3800 762 3500 
Q 625 3200 662 2875 
z
" transform="scale(0.015625)"/>
        </defs>
        <use xlink:href="#SimHei-30"/>
        <use xlink:href="#SimHei-2e" x="50"/>
        <use xlink:href="#SimHei-39" x="100"/>
        <use xlink:href="#SimHei-30" x="150"/>
       </g>
      </g>
     </g>
     <g id="ytick_8">
      <g id="line2d_50">
       <path d="M 369 267.2256 
L 592.2 267.2256 
" clip-path="url(#p5139dba072)" style="fill: none; stroke: #ffffff; stroke-width: 0.8; stroke-linecap: square"/>
      </g>
      <g id="line2d_51">
       <g>
        <use xlink:href="#m81f660bc2e" x="369" y="267.2256" style="fill: #555555; stroke: #555555; stroke-width: 0.8"/>
       </g>
      </g>
      <g id="text_26">
       <!-- 0.92 -->
       <g style="fill: #555555" transform="translate(346 269.9756) scale(0.08 -0.08)">
        <use xlink:href="#SimHei-30"/>
        <use xlink:href="#SimHei-2e" x="50"/>
        <use xlink:href="#SimHei-39" x="100"/>
        <use xlink:href="#SimHei-32" x="150"/>
       </g>
      </g>
     </g>
     <g id="ytick_9">
      <g id="line2d_52">
       <path d="M 369 243.5712 
L 592.2 243.5712 
" clip-path="url(#p5139dba072)" style="fill: none; stroke: #ffffff; stroke-width: 0.8; stroke-linecap: square"/>
      </g>
      <g id="line2d_53">
       <g>
        <use xlink:href="#m81f660bc2e" x="369" y="243.5712" style="fill: #555555; stroke: #555555; stroke-width: 0.8"/>
       </g>
      </g>
      <g id="text_27">
       <!-- 0.94 -->
       <g style="fill: #555555" transform="translate(346 246.3212) scale(0.08 -0.08)">
        <use xlink:href="#SimHei-30"/>
        <use xlink:href="#SimHei-2e" x="50"/>
        <use xlink:href="#SimHei-39" x="100"/>
        <use xlink:href="#SimHei-34" x="150"/>
       </g>
      </g>
     </g>
     <g id="ytick_10">
      <g id="line2d_54">
       <path d="M 369 219.9168 
L 592.2 219.9168 
" clip-path="url(#p5139dba072)" style="fill: none; stroke: #ffffff; stroke-width: 0.8; stroke-linecap: square"/>
      </g>
      <g id="line2d_55">
       <g>
        <use xlink:href="#m81f660bc2e" x="369" y="219.9168" style="fill: #555555; stroke: #555555; stroke-width: 0.8"/>
       </g>
      </g>
      <g id="text_28">
       <!-- 0.96 -->
       <g style="fill: #555555" transform="translate(346 222.6668) scale(0.08 -0.08)">
        <use xlink:href="#SimHei-30"/>
        <use xlink:href="#SimHei-2e" x="50"/>
        <use xlink:href="#SimHei-39" x="100"/>
        <use xlink:href="#SimHei-36" x="150"/>
       </g>
      </g>
     </g>
     <g id="ytick_11">
      <g id="line2d_56">
       <path d="M 369 196.2624 
L 592.2 196.2624 
" clip-path="url(#p5139dba072)" style="fill: none; stroke: #ffffff; stroke-width: 0.8; stroke-linecap: square"/>
      </g>
      <g id="line2d_57">
       <g>
        <use xlink:href="#m81f660bc2e" x="369" y="196.2624" style="fill: #555555; stroke: #555555; stroke-width: 0.8"/>
       </g>
      </g>
      <g id="text_29">
       <!-- 0.98 -->
       <g style="fill: #555555" transform="translate(346 199.0124) scale(0.08 -0.08)">
        <use xlink:href="#SimHei-30"/>
        <use xlink:href="#SimHei-2e" x="50"/>
        <use xlink:href="#SimHei-39" x="100"/>
        <use xlink:href="#SimHei-38" x="150"/>
       </g>
      </g>
     </g>
     <g id="ytick_12">
      <g id="line2d_58">
       <path d="M 369 172.608 
L 592.2 172.608 
" clip-path="url(#p5139dba072)" style="fill: none; stroke: #ffffff; stroke-width: 0.8; stroke-linecap: square"/>
      </g>
      <g id="line2d_59">
       <g>
        <use xlink:href="#m81f660bc2e" x="369" y="172.608" style="fill: #555555; stroke: #555555; stroke-width: 0.8"/>
       </g>
      </g>
      <g id="text_30">
       <!-- 1.00 -->
       <g style="fill: #555555" transform="translate(346 175.358) scale(0.08 -0.08)">
        <use xlink:href="#SimHei-31"/>
        <use xlink:href="#SimHei-2e" x="50"/>
        <use xlink:href="#SimHei-30" x="100"/>
        <use xlink:href="#SimHei-30" x="150"/>
       </g>
      </g>
     </g>
     <g id="ytick_13">
      <g id="line2d_60">
       <path d="M 369 148.9536 
L 592.2 148.9536 
" clip-path="url(#p5139dba072)" style="fill: none; stroke: #ffffff; stroke-width: 0.8; stroke-linecap: square"/>
      </g>
      <g id="line2d_61">
       <g>
        <use xlink:href="#m81f660bc2e" x="369" y="148.9536" style="fill: #555555; stroke: #555555; stroke-width: 0.8"/>
       </g>
      </g>
      <g id="text_31">
       <!-- 1.02 -->
       <g style="fill: #555555" transform="translate(346 151.7036) scale(0.08 -0.08)">
        <use xlink:href="#SimHei-31"/>
        <use xlink:href="#SimHei-2e" x="50"/>
        <use xlink:href="#SimHei-30" x="100"/>
        <use xlink:href="#SimHei-32" x="150"/>
       </g>
      </g>
     </g>
     <g id="ytick_14">
      <g id="line2d_62">
       <path d="M 369 125.2992 
L 592.2 125.2992 
" clip-path="url(#p5139dba072)" style="fill: none; stroke: #ffffff; stroke-width: 0.8; stroke-linecap: square"/>
      </g>
      <g id="line2d_63">
       <g>
        <use xlink:href="#m81f660bc2e" x="369" y="125.2992" style="fill: #555555; stroke: #555555; stroke-width: 0.8"/>
       </g>
      </g>
      <g id="text_32">
       <!-- 1.04 -->
       <g style="fill: #555555" transform="translate(346 128.0492) scale(0.08 -0.08)">
        <use xlink:href="#SimHei-31"/>
        <use xlink:href="#SimHei-2e" x="50"/>
        <use xlink:href="#SimHei-30" x="100"/>
        <use xlink:href="#SimHei-34" x="150"/>
       </g>
      </g>
     </g>
    </g>
    <g id="patch_9">
     <path d="M 369 113.472 
L 90 69.12 
" style="fill: none; stroke: #808080; stroke-width: 0.5; stroke-linejoin: miter"/>
    </g>
    <g id="patch_10">
     <path d="M 592.2 290.88 
L 191.454545 132.48 
" style="fill: none; stroke: #808080; stroke-width: 0.5; stroke-linejoin: miter"/>
    </g>
    <g id="line2d_64">
     <path d="M 480.6 577 
L 480.709429 173.626344 
L 480.740694 173.551831 
L 480.850123 173.079916 
L 481.272204 172.980565 
L 481.326919 172.93089 
L 483.109042 172.831539 
L 483.109042 172.806701 
L 526.122307 172.707351 
L 526.122307 172.682513 
L 617.932922 172.682513 
L 617.932922 172.682513 
" clip-path="url(#p5139dba072)" style="fill: none; stroke: #00ffff; stroke-width: 2; stroke-linecap: square"/>
    </g>
    <g id="line2d_65">
     <path d="M 480.615651 577 
L 480.725208 189.80985 
L 480.733033 189.80985 
L 480.84259 180.082761 
L 480.850415 180.082761 
L 480.959972 177.830432 
L 480.983449 177.830432 
L 481.093005 176.295879 
L 481.155609 176.221626 
L 481.265166 175.652356 
L 481.32777 175.578104 
L 481.437327 175.281093 
L 481.452978 175.281093 
L 481.523407 174.984083 
L 481.625138 174.885079 
L 481.72687 174.662322 
L 481.81295 174.563318 
L 481.891205 174.390062 
L 482.024238 174.31581 
L 482.133795 174.093052 
L 482.243351 173.994048 
L 482.345083 173.919796 
L 482.775484 173.820792 
L 482.877216 173.697038 
L 483.51108 173.598035 
L 483.51108 173.548533 
L 484.48144 173.449529 
L 484.48144 173.424778 
L 484.958794 173.325775 
L 484.958794 173.301024 
L 486.938641 173.202021 
L 486.938641 173.17727 
L 490.405331 173.078266 
L 490.405331 173.053516 
L 495.930122 172.954512 
L 495.930122 172.929761 
L 505.547641 172.830758 
L 505.547641 172.781256 
L 536.004422 172.682253 
L 536.004422 172.657502 
L 592.347902 172.632751 
L 592.347902 172.632751 
" clip-path="url(#p5139dba072)" style="fill: none; stroke: #ff8c00; stroke-width: 2; stroke-linecap: square"/>
    </g>
    <g id="line2d_66">
     <path d="M 480.607815 577 
L 480.71723 229.110212 
L 480.725046 229.110212 
L 480.83446 198.324706 
L 480.842276 198.324706 
L 480.951691 188.907671 
L 480.959506 188.907671 
L 481.068921 183.192847 
L 481.076736 183.192847 
L 481.178336 181.130541 
L 481.201782 181.031153 
L 481.295566 179.714259 
L 481.326827 179.639718 
L 481.436242 178.620988 
L 481.467503 178.5216 
L 481.576918 177.478024 
L 481.592549 177.453176 
L 481.686333 176.856847 
L 481.764486 176.782306 
L 481.873901 176.335059 
L 481.920793 176.235671 
L 482.030208 175.838118 
L 482.108362 175.763576 
L 482.202146 175.490259 
L 482.420975 175.390871 
L 482.53039 175.1424 
L 482.63199 175.043012 
L 482.710143 174.918776 
L 482.843004 174.844235 
L 482.952419 174.645459 
L 483.046203 174.546071 
L 483.124356 174.496376 
L 483.249402 174.421835 
L 483.343186 174.247906 
L 483.601092 174.148518 
L 483.624539 174.073976 
L 483.898076 173.974588 
L 483.898076 173.949741 
L 484.515488 173.850353 
L 484.515488 173.825506 
L 485.109454 173.726118 
L 485.187607 173.626729 
L 486.15671 173.527341 
L 486.15671 173.502494 
L 487.391535 173.403106 
L 487.430612 173.353412 
L 488.720143 173.254024 
L 488.720143 173.229176 
L 490.994409 173.129788 
L 490.994409 173.104941 
L 493.362458 173.005553 
L 493.362458 172.980706 
L 500.833928 172.881318 
L 500.833928 172.856471 
L 519.598571 172.757082 
L 519.598571 172.732235 
L 595.423048 172.657694 
L 595.423048 172.657694 
" clip-path="url(#p5139dba072)" style="fill: none; stroke: #6495ed; stroke-width: 2; stroke-linecap: square"/>
    </g>
    <g id="line2d_67">
     <path d="M 480.607804 577 
L 480.71706 187.157106 
L 480.724865 187.157106 
L 480.834121 177.823717 
L 480.849729 177.723895 
L 480.958985 175.727448 
L 480.974594 175.702492 
L 481.08385 174.854003 
L 481.130674 174.75418 
L 481.239931 174.354891 
L 481.356991 174.280024 
L 481.388207 174.005513 
L 481.52868 173.90569 
L 481.630132 173.706046 
L 481.770605 173.606223 
L 481.833037 173.506401 
L 482.09057 173.406579 
L 482.137394 173.306756 
L 482.176414 173.306756 
L 482.629048 173.206934 
L 482.629048 173.181978 
L 483.760633 173.082156 
L 483.760633 173.057201 
L 485.602385 172.957378 
L 485.602385 172.932423 
L 489.785346 172.8326 
L 489.785346 172.807645 
L 505.346586 172.707822 
L 505.346586 172.682867 
L 594.991502 172.608 
L 594.991502 172.608 
" clip-path="url(#p5139dba072)" style="fill: none; stroke: #008000; stroke-width: 2; stroke-linecap: square"/>
    </g>
    <g id="patch_11">
     <path d="M 369 290.88 
L 369 113.472 
" style="fill: none; stroke: #ffffff; stroke-linejoin: miter; stroke-linecap: square"/>
    </g>
    <g id="patch_12">
     <path d="M 592.2 290.88 
L 592.2 113.472 
" style="fill: none; stroke: #ffffff; stroke-linejoin: miter; stroke-linecap: square"/>
    </g>
    <g id="patch_13">
     <path d="M 369 290.88 
L 592.2 290.88 
" style="fill: none; stroke: #ffffff; stroke-linejoin: miter; stroke-linecap: square"/>
    </g>
    <g id="patch_14">
     <path d="M 369 113.472 
L 592.2 113.472 
" style="fill: none; stroke: #ffffff; stroke-linejoin: miter; stroke-linecap: square"/>
    </g>
   </g>
   <g id="legend_1">
    <g id="patch_15">
     <path d="M 439 507.64 
L 641 507.64 
Q 643 507.64 643 505.64 
L 643 452.42125 
Q 643 450.42125 641 450.42125 
L 439 450.42125 
Q 437 450.42125 437 452.42125 
L 437 505.64 
Q 437 507.64 439 507.64 
z
" style="fill: #e5e5e5; opacity: 0.8; stroke: #cccccc; stroke-width: 0.5; stroke-linejoin: miter"/>
    </g>
    <g id="line2d_68">
     <path d="M 441 458.225937 
L 451 458.225937 
L 461 458.225937 
" style="fill: none; stroke: #00ffff; stroke-width: 2; stroke-linecap: square"/>
    </g>
    <g id="text_33">
     <!-- ROC curve of class 0 (area = 1.00) -->
     <g transform="translate(469 461.725937) scale(0.1 -0.1)">
      <defs>
       <path id="SimHei-3d" d="M 2975 2900 
L 125 2900 
L 125 3300 
L 2975 3300 
L 2975 2900 
z
M 2975 1375 
L 125 1375 
L 125 1775 
L 2975 1775 
L 2975 1375 
z
" transform="scale(0.015625)"/>
      </defs>
      <use xlink:href="#SimHei-52"/>
      <use xlink:href="#SimHei-4f" x="50"/>
      <use xlink:href="#SimHei-43" x="100"/>
      <use xlink:href="#SimHei-20" x="150"/>
      <use xlink:href="#SimHei-63" x="200"/>
      <use xlink:href="#SimHei-75" x="250"/>
      <use xlink:href="#SimHei-72" x="300"/>
      <use xlink:href="#SimHei-76" x="350"/>
      <use xlink:href="#SimHei-65" x="400"/>
      <use xlink:href="#SimHei-20" x="450"/>
      <use xlink:href="#SimHei-6f" x="500"/>
      <use xlink:href="#SimHei-66" x="550"/>
      <use xlink:href="#SimHei-20" x="600"/>
      <use xlink:href="#SimHei-63" x="650"/>
      <use xlink:href="#SimHei-6c" x="700"/>
      <use xlink:href="#SimHei-61" x="750"/>
      <use xlink:href="#SimHei-73" x="800"/>
      <use xlink:href="#SimHei-73" x="850"/>
      <use xlink:href="#SimHei-20" x="900"/>
      <use xlink:href="#SimHei-30" x="950"/>
      <use xlink:href="#SimHei-20" x="1000"/>
      <use xlink:href="#SimHei-28" x="1050"/>
      <use xlink:href="#SimHei-61" x="1100"/>
      <use xlink:href="#SimHei-72" x="1150"/>
      <use xlink:href="#SimHei-65" x="1200"/>
      <use xlink:href="#SimHei-61" x="1250"/>
      <use xlink:href="#SimHei-20" x="1300"/>
      <use xlink:href="#SimHei-3d" x="1350"/>
      <use xlink:href="#SimHei-20" x="1400"/>
      <use xlink:href="#SimHei-31" x="1450"/>
      <use xlink:href="#SimHei-2e" x="1500"/>
      <use xlink:href="#SimHei-30" x="1550"/>
      <use xlink:href="#SimHei-30" x="1600"/>
      <use xlink:href="#SimHei-29" x="1650"/>
     </g>
    </g>
    <g id="line2d_69">
     <path d="M 441 471.780625 
L 451 471.780625 
L 461 471.780625 
" style="fill: none; stroke: #ff8c00; stroke-width: 2; stroke-linecap: square"/>
    </g>
    <g id="text_34">
     <!-- ROC curve of class 1 (area = 1.00) -->
     <g transform="translate(469 475.280625) scale(0.1 -0.1)">
      <use xlink:href="#SimHei-52"/>
      <use xlink:href="#SimHei-4f" x="50"/>
      <use xlink:href="#SimHei-43" x="100"/>
      <use xlink:href="#SimHei-20" x="150"/>
      <use xlink:href="#SimHei-63" x="200"/>
      <use xlink:href="#SimHei-75" x="250"/>
      <use xlink:href="#SimHei-72" x="300"/>
      <use xlink:href="#SimHei-76" x="350"/>
      <use xlink:href="#SimHei-65" x="400"/>
      <use xlink:href="#SimHei-20" x="450"/>
      <use xlink:href="#SimHei-6f" x="500"/>
      <use xlink:href="#SimHei-66" x="550"/>
      <use xlink:href="#SimHei-20" x="600"/>
      <use xlink:href="#SimHei-63" x="650"/>
      <use xlink:href="#SimHei-6c" x="700"/>
      <use xlink:href="#SimHei-61" x="750"/>
      <use xlink:href="#SimHei-73" x="800"/>
      <use xlink:href="#SimHei-73" x="850"/>
      <use xlink:href="#SimHei-20" x="900"/>
      <use xlink:href="#SimHei-31" x="950"/>
      <use xlink:href="#SimHei-20" x="1000"/>
      <use xlink:href="#SimHei-28" x="1050"/>
      <use xlink:href="#SimHei-61" x="1100"/>
      <use xlink:href="#SimHei-72" x="1150"/>
      <use xlink:href="#SimHei-65" x="1200"/>
      <use xlink:href="#SimHei-61" x="1250"/>
      <use xlink:href="#SimHei-20" x="1300"/>
      <use xlink:href="#SimHei-3d" x="1350"/>
      <use xlink:href="#SimHei-20" x="1400"/>
      <use xlink:href="#SimHei-31" x="1450"/>
      <use xlink:href="#SimHei-2e" x="1500"/>
      <use xlink:href="#SimHei-30" x="1550"/>
      <use xlink:href="#SimHei-30" x="1600"/>
      <use xlink:href="#SimHei-29" x="1650"/>
     </g>
    </g>
    <g id="line2d_70">
     <path d="M 441 485.335312 
L 451 485.335312 
L 461 485.335312 
" style="fill: none; stroke: #6495ed; stroke-width: 2; stroke-linecap: square"/>
    </g>
    <g id="text_35">
     <!-- ROC curve of class 2 (area = 1.00) -->
     <g transform="translate(469 488.835312) scale(0.1 -0.1)">
      <use xlink:href="#SimHei-52"/>
      <use xlink:href="#SimHei-4f" x="50"/>
      <use xlink:href="#SimHei-43" x="100"/>
      <use xlink:href="#SimHei-20" x="150"/>
      <use xlink:href="#SimHei-63" x="200"/>
      <use xlink:href="#SimHei-75" x="250"/>
      <use xlink:href="#SimHei-72" x="300"/>
      <use xlink:href="#SimHei-76" x="350"/>
      <use xlink:href="#SimHei-65" x="400"/>
      <use xlink:href="#SimHei-20" x="450"/>
      <use xlink:href="#SimHei-6f" x="500"/>
      <use xlink:href="#SimHei-66" x="550"/>
      <use xlink:href="#SimHei-20" x="600"/>
      <use xlink:href="#SimHei-63" x="650"/>
      <use xlink:href="#SimHei-6c" x="700"/>
      <use xlink:href="#SimHei-61" x="750"/>
      <use xlink:href="#SimHei-73" x="800"/>
      <use xlink:href="#SimHei-73" x="850"/>
      <use xlink:href="#SimHei-20" x="900"/>
      <use xlink:href="#SimHei-32" x="950"/>
      <use xlink:href="#SimHei-20" x="1000"/>
      <use xlink:href="#SimHei-28" x="1050"/>
      <use xlink:href="#SimHei-61" x="1100"/>
      <use xlink:href="#SimHei-72" x="1150"/>
      <use xlink:href="#SimHei-65" x="1200"/>
      <use xlink:href="#SimHei-61" x="1250"/>
      <use xlink:href="#SimHei-20" x="1300"/>
      <use xlink:href="#SimHei-3d" x="1350"/>
      <use xlink:href="#SimHei-20" x="1400"/>
      <use xlink:href="#SimHei-31" x="1450"/>
      <use xlink:href="#SimHei-2e" x="1500"/>
      <use xlink:href="#SimHei-30" x="1550"/>
      <use xlink:href="#SimHei-30" x="1600"/>
      <use xlink:href="#SimHei-29" x="1650"/>
     </g>
    </g>
    <g id="line2d_71">
     <path d="M 441 498.89 
L 451 498.89 
L 461 498.89 
" style="fill: none; stroke: #008000; stroke-width: 2; stroke-linecap: square"/>
    </g>
    <g id="text_36">
     <!-- ROC curve of class 3 (area = 1.00) -->
     <g transform="translate(469 502.39) scale(0.1 -0.1)">
      <defs>
       <path id="SimHei-33" d="M 250 1225 
L 700 1300 
Q 800 975 1025 762 
Q 1250 550 1587 562 
Q 1925 575 2125 837 
Q 2325 1100 2300 1437 
Q 2275 1775 2037 1962 
Q 1800 2150 1275 2225 
L 1275 2550 
Q 1800 2600 2037 2825 
Q 2275 3050 2250 3412 
Q 2225 3775 1925 3937 
Q 1625 4100 1287 3975 
Q 950 3850 750 3275 
L 300 3350 
Q 450 3800 712 4100 
Q 975 4400 1425 4450 
Q 1875 4500 2212 4337 
Q 2550 4175 2687 3837 
Q 2825 3500 2725 3100 
Q 2625 2700 2150 2400 
Q 2500 2250 2687 1950 
Q 2875 1650 2812 1162 
Q 2750 675 2375 375 
Q 2000 75 1525 87 
Q 1050 100 700 387 
Q 350 675 250 1225 
z
" transform="scale(0.015625)"/>
      </defs>
      <use xlink:href="#SimHei-52"/>
      <use xlink:href="#SimHei-4f" x="50"/>
      <use xlink:href="#SimHei-43" x="100"/>
      <use xlink:href="#SimHei-20" x="150"/>
      <use xlink:href="#SimHei-63" x="200"/>
      <use xlink:href="#SimHei-75" x="250"/>
      <use xlink:href="#SimHei-72" x="300"/>
      <use xlink:href="#SimHei-76" x="350"/>
      <use xlink:href="#SimHei-65" x="400"/>
      <use xlink:href="#SimHei-20" x="450"/>
      <use xlink:href="#SimHei-6f" x="500"/>
      <use xlink:href="#SimHei-66" x="550"/>
      <use xlink:href="#SimHei-20" x="600"/>
      <use xlink:href="#SimHei-63" x="650"/>
      <use xlink:href="#SimHei-6c" x="700"/>
      <use xlink:href="#SimHei-61" x="750"/>
      <use xlink:href="#SimHei-73" x="800"/>
      <use xlink:href="#SimHei-73" x="850"/>
      <use xlink:href="#SimHei-20" x="900"/>
      <use xlink:href="#SimHei-33" x="950"/>
      <use xlink:href="#SimHei-20" x="1000"/>
      <use xlink:href="#SimHei-28" x="1050"/>
      <use xlink:href="#SimHei-61" x="1100"/>
      <use xlink:href="#SimHei-72" x="1150"/>
      <use xlink:href="#SimHei-65" x="1200"/>
      <use xlink:href="#SimHei-61" x="1250"/>
      <use xlink:href="#SimHei-20" x="1300"/>
      <use xlink:href="#SimHei-3d" x="1350"/>
      <use xlink:href="#SimHei-20" x="1400"/>
      <use xlink:href="#SimHei-31" x="1450"/>
      <use xlink:href="#SimHei-2e" x="1500"/>
      <use xlink:href="#SimHei-30" x="1550"/>
      <use xlink:href="#SimHei-30" x="1600"/>
      <use xlink:href="#SimHei-29" x="1650"/>
     </g>
    </g>
   </g>
  </g>
 </g>
 <defs>
  <clipPath id="pdd411b56c8">
   <rect x="90" y="69.12" width="558" height="443.52"/>
  </clipPath>
  <clipPath id="p5139dba072">
   <rect x="369" y="113.472" width="223.2" height="177.408"/>
  </clipPath>
 </defs>
</svg>
